<mxfile host="app.diagrams.net" modified="2023-09-15T00:41:57.196Z" agent="Mozilla/5.0 (Windows NT 10.0; Win64; x64) AppleWebKit/537.36 (KHTML, like Gecko) Chrome/116.0.0.0 Safari/537.36 Edg/116.0.1938.81" version="21.7.5" etag="D84Pih1K8hDE_52mEKlS" type="github">
  <diagram name="PÃ¡gina-1" id="_Oq3gzK5ZUvKQWLchNnv">
    <mxGraphModel>
      <root>
        <mxCell id="0" />
        <mxCell id="1" parent="0" />
      </root>
    </mxGraphModel>
  </diagram>
</mxfile>
